<svg width="1916" height="400" viewBox="0 0 1916 400" fill="none" xmlns="http://www.w3.org/2000/svg">
<g clip-path="url(#clip0_0_294)">
<rect x="-133" width="2127" height="433" fill="#E85B76"/>
<rect x="285" y="35" width="78" height="78" stroke="black" stroke-width="2"/>
<rect x="272" y="47" width="78" height="78" stroke="black" stroke-width="2"/>
<path d="M266 399C266 434.522 238.293 463 204.5 463C170.707 463 143 434.522 143 399C143 363.478 170.707 335 204.5 335C238.293 335 266 363.478 266 399Z" stroke="#FFCC66" stroke-width="10"/>
<path fill-rule="evenodd" clip-rule="evenodd" d="M1597.78 -6L1593.54 85.6505L1593 97.3206L1603.27 91.749L1738.01 18.6351L1748.28 13.0634L1738.2 7.15455L1715.77 -6H1696L1727.94 12.7262L1603.81 80.0789L1607.79 -6H1597.78Z" fill="#FFCC66"/>
<circle cx="118.5" cy="155.5" r="2.5" fill="black"/>
<circle cx="133.5" cy="155.5" r="2.5" fill="black"/>
<circle cx="151.5" cy="155.5" r="2.5" fill="black"/>
<circle cx="166.5" cy="155.5" r="2.5" fill="black"/>
<circle cx="118.5" cy="168.5" r="2.5" fill="black"/>
<circle cx="133.5" cy="168.5" r="2.5" fill="black"/>
<circle cx="151.5" cy="168.5" r="2.5" fill="black"/>
<circle cx="166.5" cy="168.5" r="2.5" fill="black"/>
<circle cx="118.5" cy="182.5" r="2.5" fill="black"/>
<circle cx="133.5" cy="182.5" r="2.5" fill="black"/>
<circle cx="151.5" cy="182.5" r="2.5" fill="black"/>
<circle cx="166.5" cy="182.5" r="2.5" fill="black"/>
<circle cx="118.5" cy="195.5" r="2.5" fill="black"/>
<circle cx="133.5" cy="195.5" r="2.5" fill="black"/>
<circle cx="151.5" cy="195.5" r="2.5" fill="black"/>
<circle cx="166.5" cy="195.5" r="2.5" fill="black"/>
<circle cx="1722.5" cy="196.5" r="1.5" fill="black"/>
<circle cx="1737.5" cy="196.5" r="1.5" fill="black"/>
<circle cx="1755.5" cy="196.5" r="1.5" fill="black"/>
<circle cx="1770.5" cy="196.5" r="1.5" fill="black"/>
<circle cx="1722.5" cy="209.5" r="1.5" fill="black"/>
<circle cx="1737.5" cy="209.5" r="1.5" fill="black"/>
<circle cx="1755.5" cy="209.5" r="1.5" fill="black"/>
<circle cx="1770.5" cy="209.5" r="1.5" fill="black"/>
<circle cx="1722.5" cy="223.5" r="1.5" fill="black"/>
<circle cx="1737.5" cy="223.5" r="1.5" fill="black"/>
<circle cx="1755.5" cy="223.5" r="1.5" fill="black"/>
<circle cx="1770.5" cy="223.5" r="1.5" fill="black"/>
<circle cx="1722.5" cy="236.5" r="1.5" fill="black"/>
<circle cx="1737.5" cy="236.5" r="1.5" fill="black"/>
<circle cx="1755.5" cy="236.5" r="1.5" fill="black"/>
<circle cx="1770.5" cy="236.5" r="1.5" fill="black"/>
<circle cx="1785.5" cy="196.5" r="1.5" fill="black"/>
<circle cx="1800.5" cy="196.5" r="1.5" fill="black"/>
<circle cx="1818.5" cy="196.5" r="1.5" fill="black"/>
<circle cx="1833.5" cy="196.5" r="1.5" fill="black"/>
<circle cx="1785.5" cy="209.5" r="1.5" fill="black"/>
<circle cx="1800.5" cy="209.5" r="1.5" fill="black"/>
<circle cx="1818.5" cy="209.5" r="1.5" fill="black"/>
<circle cx="1833.5" cy="209.5" r="1.5" fill="black"/>
<circle cx="1785.5" cy="223.5" r="1.5" fill="black"/>
<circle cx="1800.5" cy="223.5" r="1.5" fill="black"/>
<circle cx="1818.5" cy="223.5" r="1.5" fill="black"/>
<circle cx="1833.5" cy="223.5" r="1.5" fill="black"/>
<circle cx="1785.5" cy="236.5" r="1.5" fill="black"/>
<circle cx="1800.5" cy="236.5" r="1.5" fill="black"/>
<circle cx="1818.5" cy="236.5" r="1.5" fill="black"/>
<circle cx="1833.5" cy="236.5" r="1.5" fill="black"/>
<circle cx="1722.5" cy="249.5" r="1.5" fill="black"/>
<circle cx="1737.5" cy="249.5" r="1.5" fill="black"/>
<circle cx="1755.5" cy="249.5" r="1.5" fill="black"/>
<circle cx="1770.5" cy="249.5" r="1.5" fill="black"/>
<circle cx="1722.5" cy="262.5" r="1.5" fill="black"/>
<circle cx="1737.5" cy="262.5" r="1.5" fill="black"/>
<circle cx="1755.5" cy="262.5" r="1.5" fill="black"/>
<circle cx="1770.5" cy="262.5" r="1.5" fill="black"/>
<circle cx="1722.5" cy="276.5" r="1.5" fill="black"/>
<circle cx="1737.5" cy="276.5" r="1.5" fill="black"/>
<circle cx="1755.5" cy="276.5" r="1.5" fill="black"/>
<circle cx="1770.5" cy="276.5" r="1.5" fill="black"/>
<circle cx="1722.5" cy="289.5" r="1.5" fill="black"/>
<circle cx="1737.5" cy="289.5" r="1.5" fill="black"/>
<circle cx="1755.5" cy="289.5" r="1.5" fill="black"/>
<circle cx="1770.5" cy="289.5" r="1.5" fill="black"/>
<circle cx="1785.5" cy="249.5" r="1.5" fill="black"/>
<circle cx="1800.5" cy="249.5" r="1.5" fill="black"/>
<circle cx="1818.5" cy="249.5" r="1.5" fill="black"/>
<circle cx="1833.5" cy="249.5" r="1.5" fill="black"/>
<circle cx="1785.5" cy="262.5" r="1.5" fill="black"/>
<circle cx="1800.5" cy="262.5" r="1.5" fill="black"/>
<circle cx="1818.5" cy="262.5" r="1.5" fill="black"/>
<circle cx="1833.5" cy="262.5" r="1.5" fill="black"/>
<circle cx="1785.5" cy="276.5" r="1.5" fill="black"/>
<circle cx="1800.5" cy="276.5" r="1.5" fill="black"/>
<circle cx="1818.5" cy="276.5" r="1.5" fill="black"/>
<circle cx="1833.5" cy="276.5" r="1.5" fill="black"/>
<circle cx="1785.5" cy="289.5" r="1.5" fill="black"/>
<circle cx="1800.5" cy="289.5" r="1.5" fill="black"/>
<circle cx="1818.5" cy="289.5" r="1.5" fill="black"/>
<circle cx="1833.5" cy="289.5" r="1.5" fill="black"/>
<path d="M1610 330L1568 367L1610 400L1568 427" stroke="black" stroke-width="2"/>
</g>
<defs>
<clipPath id="clip0_0_294">
<rect width="1985" height="400" fill="white" transform="translate(-69)"/>
</clipPath>
</defs>
</svg>
